<mxfile host="65bd71144e">
    <diagram id="z9EzCmLXQSxuZ-4Axso4" name="Page-1">
        <mxGraphModel dx="2566" dy="3112" grid="1" gridSize="10" guides="1" tooltips="1" connect="1" arrows="1" fold="1" page="1" pageScale="1" pageWidth="1654" pageHeight="1169" math="0" shadow="0">
            <root>
                <mxCell id="0"/>
                <mxCell id="1" parent="0"/>
                <mxCell id="AYDaQh2bBCq9vtEuZ4vr-1" value="" style="shape=flexArrow;endArrow=classic;html=1;rounded=0;fontSize=18;exitX=1;exitY=0.5;exitDx=0;exitDy=0;width=6.666666666666667;endSize=19.78333333333333;entryX=-0.071;entryY=0.62;entryDx=0;entryDy=0;entryPerimeter=0;" parent="1" edge="1">
                    <mxGeometry width="50" height="50" relative="1" as="geometry">
                        <mxPoint x="764.26" y="-176.2" as="sourcePoint"/>
                        <mxPoint x="1509.9999999999998" y="-173.00000000000017" as="targetPoint"/>
                    </mxGeometry>
                </mxCell>
                <mxCell id="CZBQ9HR7Dfr9N-4URWu_-2" value="" style="rounded=0;whiteSpace=wrap;html=1;align=center;" parent="1" vertex="1">
                    <mxGeometry x="540" y="-1120" width="220" height="150" as="geometry"/>
                </mxCell>
                <mxCell id="CZBQ9HR7Dfr9N-4URWu_-3" value="&lt;b&gt;&lt;font style=&quot;font-size: 14px;&quot;&gt;Flower Microservice&lt;/font&gt;&lt;/b&gt;" style="text;html=1;strokeColor=none;fillColor=none;align=center;verticalAlign=middle;whiteSpace=wrap;rounded=0;" parent="1" vertex="1">
                    <mxGeometry x="560" y="-1110" width="60" height="30" as="geometry"/>
                </mxCell>
                <mxCell id="CZBQ9HR7Dfr9N-4URWu_-4" value="&lt;b&gt;&lt;font style=&quot;font-size: 14px;&quot;&gt;Flower Coll&lt;/font&gt;&lt;/b&gt;" style="rounded=0;whiteSpace=wrap;html=1;" parent="1" vertex="1">
                    <mxGeometry x="590" y="-1050" width="120" height="40" as="geometry"/>
                </mxCell>
                <mxCell id="CZBQ9HR7Dfr9N-4URWu_-5" value="" style="rounded=0;whiteSpace=wrap;html=1;align=center;" parent="1" vertex="1">
                    <mxGeometry x="540" y="-830" width="220" height="150" as="geometry"/>
                </mxCell>
                <mxCell id="CZBQ9HR7Dfr9N-4URWu_-6" value="&lt;b&gt;&lt;font style=&quot;font-size: 14px;&quot;&gt;Bouquet Microservice&lt;/font&gt;&lt;/b&gt;" style="text;html=1;strokeColor=none;fillColor=none;align=center;verticalAlign=middle;whiteSpace=wrap;rounded=0;" parent="1" vertex="1">
                    <mxGeometry x="560" y="-820" width="60" height="30" as="geometry"/>
                </mxCell>
                <mxCell id="CZBQ9HR7Dfr9N-4URWu_-7" value="&lt;font style=&quot;font-size: 14px;&quot;&gt;Flower Coll&lt;/font&gt;" style="rounded=0;whiteSpace=wrap;html=1;" parent="1" vertex="1">
                    <mxGeometry x="550" y="-763" width="80" height="40" as="geometry"/>
                </mxCell>
                <mxCell id="CZBQ9HR7Dfr9N-4URWu_-8" value="&lt;font style=&quot;font-size: 14px;&quot;&gt;Bouquet Coll&lt;/font&gt;" style="rounded=0;whiteSpace=wrap;html=1;" parent="1" vertex="1">
                    <mxGeometry x="669" y="-763" width="80" height="40" as="geometry"/>
                </mxCell>
                <mxCell id="CZBQ9HR7Dfr9N-4URWu_-9" value="" style="rounded=0;whiteSpace=wrap;html=1;align=center;" parent="1" vertex="1">
                    <mxGeometry x="540" y="-530" width="220" height="150" as="geometry"/>
                </mxCell>
                <mxCell id="CZBQ9HR7Dfr9N-4URWu_-10" value="&lt;font style=&quot;font-size: 14px;&quot;&gt;&lt;b&gt;Order&lt;br&gt;Microservice&lt;/b&gt;&lt;/font&gt;" style="text;html=1;strokeColor=none;fillColor=none;align=center;verticalAlign=middle;whiteSpace=wrap;rounded=0;" parent="1" vertex="1">
                    <mxGeometry x="560" y="-520" width="60" height="30" as="geometry"/>
                </mxCell>
                <mxCell id="CZBQ9HR7Dfr9N-4URWu_-11" value="&lt;font style=&quot;font-size: 14px;&quot;&gt;Flower Coll&lt;/font&gt;" style="rounded=0;whiteSpace=wrap;html=1;" parent="1" vertex="1">
                    <mxGeometry x="550" y="-479" width="80" height="40" as="geometry"/>
                </mxCell>
                <mxCell id="CZBQ9HR7Dfr9N-4URWu_-12" value="&lt;font style=&quot;font-size: 14px;&quot;&gt;Order Coll&lt;/font&gt;" style="rounded=0;whiteSpace=wrap;html=1;" parent="1" vertex="1">
                    <mxGeometry x="669" y="-479" width="80" height="40" as="geometry"/>
                </mxCell>
                <mxCell id="CZBQ9HR7Dfr9N-4URWu_-13" value="" style="rounded=0;whiteSpace=wrap;html=1;align=center;" parent="1" vertex="1">
                    <mxGeometry x="540" y="-220" width="220" height="150" as="geometry"/>
                </mxCell>
                <mxCell id="CZBQ9HR7Dfr9N-4URWu_-14" value="&lt;b&gt;&lt;font style=&quot;font-size: 14px;&quot;&gt;Utility&lt;br&gt;Microservice&lt;/font&gt;&lt;/b&gt;" style="text;html=1;strokeColor=none;fillColor=none;align=center;verticalAlign=middle;whiteSpace=wrap;rounded=0;" parent="1" vertex="1">
                    <mxGeometry x="560" y="-210" width="60" height="30" as="geometry"/>
                </mxCell>
                <mxCell id="CZBQ9HR7Dfr9N-4URWu_-16" value="&lt;font style=&quot;font-size: 14px;&quot;&gt;Expiration Job&amp;nbsp;&lt;/font&gt;" style="rounded=0;whiteSpace=wrap;html=1;" parent="1" vertex="1">
                    <mxGeometry x="630" y="-153" width="119" height="40" as="geometry"/>
                </mxCell>
                <mxCell id="4OIm-i9QRTI9_fVuEgan-6" style="edgeStyle=orthogonalEdgeStyle;rounded=0;orthogonalLoop=1;jettySize=auto;html=1;exitX=0.5;exitY=0;exitDx=0;exitDy=0;entryX=1;entryY=0.5;entryDx=0;entryDy=0;fontSize=18;" parent="1" source="CZBQ9HR7Dfr9N-4URWu_-17" target="CZBQ9HR7Dfr9N-4URWu_-2" edge="1">
                    <mxGeometry relative="1" as="geometry">
                        <Array as="points">
                            <mxPoint x="1540" y="-1045"/>
                        </Array>
                    </mxGeometry>
                </mxCell>
                <mxCell id="H7EtUFNiWXgghIsVZ1SN-2" style="edgeStyle=orthogonalEdgeStyle;rounded=0;orthogonalLoop=1;jettySize=auto;html=1;entryX=1;entryY=0.5;entryDx=0;entryDy=0;fontSize=18;" parent="1" source="CZBQ9HR7Dfr9N-4URWu_-17" target="CZBQ9HR7Dfr9N-4URWu_-5" edge="1">
                    <mxGeometry relative="1" as="geometry">
                        <Array as="points">
                            <mxPoint x="1340" y="-755"/>
                            <mxPoint x="1340" y="-755"/>
                        </Array>
                    </mxGeometry>
                </mxCell>
                <mxCell id="AYDaQh2bBCq9vtEuZ4vr-2" style="edgeStyle=orthogonalEdgeStyle;rounded=0;orthogonalLoop=1;jettySize=auto;html=1;entryX=1;entryY=0.25;entryDx=0;entryDy=0;fontSize=18;" parent="1" edge="1">
                    <mxGeometry relative="1" as="geometry">
                        <mxPoint x="1510" y="-499" as="sourcePoint"/>
                        <mxPoint x="760" y="-491.5" as="targetPoint"/>
                        <Array as="points">
                            <mxPoint x="1510" y="-491"/>
                        </Array>
                    </mxGeometry>
                </mxCell>
                <mxCell id="CZBQ9HR7Dfr9N-4URWu_-17" value="&lt;font style=&quot;font-size: 18px;&quot;&gt;E&lt;br&gt;V&lt;br&gt;E&lt;br&gt;N&lt;br&gt;T&lt;br&gt;&lt;br&gt;B&lt;br&gt;U&lt;br&gt;S&lt;/font&gt;" style="rounded=0;whiteSpace=wrap;html=1;" parent="1" vertex="1">
                    <mxGeometry x="1510" y="-1140" width="60" height="1110" as="geometry"/>
                </mxCell>
                <mxCell id="CZBQ9HR7Dfr9N-4URWu_-25" value="check the order status.&lt;br&gt;If it is already completed, ignore the order:shouldExpire event, otherwise, emit order:cancelled event" style="shape=process;whiteSpace=wrap;html=1;backgroundOutline=1;fontSize=18;" parent="1" vertex="1">
                    <mxGeometry x="179" y="-439" width="320" height="140" as="geometry"/>
                </mxCell>
                <mxCell id="CZBQ9HR7Dfr9N-4URWu_-28" value="" style="shape=flexArrow;endArrow=classic;html=1;rounded=0;fontSize=18;exitX=1;exitY=0.5;exitDx=0;exitDy=0;width=6.666666666666667;endSize=19.78333333333333;entryX=-0.071;entryY=0.62;entryDx=0;entryDy=0;entryPerimeter=0;" parent="1" source="CZBQ9HR7Dfr9N-4URWu_-9" target="CZBQ9HR7Dfr9N-4URWu_-17" edge="1">
                    <mxGeometry width="50" height="50" relative="1" as="geometry">
                        <mxPoint x="1040" y="-800" as="sourcePoint"/>
                        <mxPoint x="1500" y="-780" as="targetPoint"/>
                    </mxGeometry>
                </mxCell>
                <mxCell id="CZBQ9HR7Dfr9N-4URWu_-27" value="subject: &quot;order:cancelled&quot;,&lt;br&gt;data: [{&lt;br&gt;&quot;bouquetId&quot;: &quot;aed-qz&quot;,&lt;br&gt;&quot;bouquetName:&amp;nbsp;&lt;br&gt;&quot;quantity&quot;: &quot;1&quot;,&lt;br&gt;flowers: [{&lt;br&gt;flowerId: a3-gr, name: rose,&lt;br&gt;price: &quot;20&quot;, quantity: &quot;4&quot;&lt;br&gt;&amp;nbsp;}]&lt;br&gt;}]" style="shape=card;whiteSpace=wrap;html=1;fontSize=18;" parent="1" vertex="1">
                    <mxGeometry x="930" y="-630" width="280" height="267" as="geometry"/>
                </mxCell>
                <mxCell id="CZBQ9HR7Dfr9N-4URWu_-37" value="- increase the quantity of flowers&lt;br&gt;- emit event of flowers:updated" style="shape=process;whiteSpace=wrap;html=1;backgroundOutline=1;fontSize=18;" parent="1" vertex="1">
                    <mxGeometry x="170" y="-1070" width="320" height="80" as="geometry"/>
                </mxCell>
                <mxCell id="CZBQ9HR7Dfr9N-4URWu_-38" value="Redis in-mem" style="rounded=0;whiteSpace=wrap;html=1;fontSize=18;" parent="1" vertex="1">
                    <mxGeometry x="300" y="-173" width="150" height="103" as="geometry"/>
                </mxCell>
                <mxCell id="CZBQ9HR7Dfr9N-4URWu_-41" value="" style="shape=flexArrow;endArrow=classic;startArrow=classic;html=1;rounded=0;fontSize=18;entryX=0;entryY=0.5;entryDx=0;entryDy=0;" parent="1" target="CZBQ9HR7Dfr9N-4URWu_-13" edge="1">
                    <mxGeometry width="100" height="100" relative="1" as="geometry">
                        <mxPoint x="450" y="-145" as="sourcePoint"/>
                        <mxPoint x="840" y="-380" as="targetPoint"/>
                    </mxGeometry>
                </mxCell>
                <mxCell id="4OIm-i9QRTI9_fVuEgan-4" value="&lt;font style=&quot;font-size: 14px;&quot;&gt;Bouquet Coll&lt;/font&gt;" style="rounded=0;whiteSpace=wrap;html=1;" parent="1" vertex="1">
                    <mxGeometry x="550" y="-428" width="80" height="40" as="geometry"/>
                </mxCell>
                <mxCell id="H7EtUFNiWXgghIsVZ1SN-3" value="When timer ends, publish the order:shouldExpire event" style="shape=process;whiteSpace=wrap;html=1;backgroundOutline=1;fontSize=18;" parent="1" vertex="1">
                    <mxGeometry x="40" y="-200" width="250" height="140" as="geometry"/>
                </mxCell>
                <mxCell id="AYDaQh2bBCq9vtEuZ4vr-3" value="subject: &quot;order:should-expire&quot;,&lt;br&gt;data: &lt;br&gt;{oderId: s4fd-i9}" style="shape=card;whiteSpace=wrap;html=1;fontSize=18;" parent="1" vertex="1">
                    <mxGeometry x="940" y="-310" width="280" height="268" as="geometry"/>
                </mxCell>
                <mxCell id="2" value="order:should-expire" style="text;html=1;strokeColor=none;fillColor=none;align=center;verticalAlign=middle;whiteSpace=wrap;rounded=0;" vertex="1" parent="1">
                    <mxGeometry x="1280" y="-210" width="130" height="30" as="geometry"/>
                </mxCell>
                <mxCell id="3" value="order:should-expire" style="text;html=1;strokeColor=none;fillColor=none;align=center;verticalAlign=middle;whiteSpace=wrap;rounded=0;" vertex="1" parent="1">
                    <mxGeometry x="1280" y="-520" width="130" height="30" as="geometry"/>
                </mxCell>
                <mxCell id="4" value="order:cancelled" style="text;html=1;strokeColor=none;fillColor=none;align=center;verticalAlign=middle;whiteSpace=wrap;rounded=0;" vertex="1" parent="1">
                    <mxGeometry x="1280" y="-440" width="130" height="30" as="geometry"/>
                </mxCell>
                <mxCell id="5" value="order:cancelled" style="text;html=1;strokeColor=none;fillColor=none;align=center;verticalAlign=middle;whiteSpace=wrap;rounded=0;" vertex="1" parent="1">
                    <mxGeometry x="1280" y="-1080" width="130" height="30" as="geometry"/>
                </mxCell>
                <mxCell id="7" value="" style="shape=singleArrow;whiteSpace=wrap;html=1;arrowWidth=0.13636363636362508;arrowSize=1;fillColor=#008a00;fontColor=#ffffff;strokeColor=#005700;" vertex="1" parent="1">
                    <mxGeometry x="40" y="-153" width="50" height="60" as="geometry"/>
                </mxCell>
                <mxCell id="8" value="" style="endArrow=classic;html=1;exitX=1;exitY=0.75;exitDx=0;exitDy=0;" edge="1" parent="1" source="CZBQ9HR7Dfr9N-4URWu_-2">
                    <mxGeometry width="50" height="50" relative="1" as="geometry">
                        <mxPoint x="660" y="-520" as="sourcePoint"/>
                        <mxPoint x="860" y="-1007" as="targetPoint"/>
                    </mxGeometry>
                </mxCell>
                <mxCell id="9" value="flower:updated" style="text;html=1;strokeColor=none;fillColor=none;align=center;verticalAlign=middle;whiteSpace=wrap;rounded=0;" vertex="1" parent="1">
                    <mxGeometry x="741" y="-1008" width="130" height="30" as="geometry"/>
                </mxCell>
            </root>
        </mxGraphModel>
    </diagram>
</mxfile>